<?xml version="1.0" encoding="UTF-8"?>
<!DOCTYPE svg PUBLIC "-//W3C//DTD SVG 1.1//EN" "http://www.w3.org/Graphics/SVG/1.1/DTD/svg11.dtd">
<!-- Creator: CorelDRAW X8 -->
<svg xmlns="http://www.w3.org/2000/svg" xml:space="preserve" width="11.9314in" height="7.90196in" version="1.1" style="shape-rendering:geometricPrecision; text-rendering:geometricPrecision; image-rendering:optimizeQuality; fill-rule:evenodd; clip-rule:evenodd"
viewBox="0 0 20053 13281"
 xmlns:xlink="http://www.w3.org/1999/xlink">
 <defs>
  <style type="text/css">
   <![CDATA[
    .fil1 {fill:#373435}
    .fil7 {fill:#2D2B3C}
    .fil5 {fill:#3A384D}
    .fil6 {fill:#794E35}
    .fil0 {fill:maroon}
    .fil11 {fill:#99B1D8}
    .fil4 {fill:#D4E1E9}
    .fil8 {fill:#D54B41}
    .fil9 {fill:#DE8444}
    .fil13 {fill:#E78947}
    .fil10 {fill:#F09958}
    .fil3 {fill:#F19959}
    .fil2 {fill:#F2E5DD}
    .fil14 {fill:#FAFAFC}
    .fil12 {fill:#FDFDFD}
   ]]>
  </style>
 </defs>
 <g id="Layer_x0020_1">
  <metadata id="CorelCorpID_0Corel-Layer"/>
  <g id="_2225132018944">
   <path class="fil0" d="M3865 10261c-120,219 -122,197 -200,196 22,-148 366,-416 278,-1028 -22,-157 -12,-109 1,-134 84,14 68,11 82,120 40,305 -14,579 -161,846zm-621 -972c78,38 166,-45 172,307 10,666 -772,976 -1235,546 -207,-192 -220,-380 -220,-619 0,-537 822,-919 1260,-420 51,59 62,106 23,186zm272 -7655l4362 9 0 7337c-163,38 -4074,11 -4363,13l1 -7359zm-252 6846c-85,-22 -127,-19 -152,-99 28,-27 62,-32 108,-4 58,34 39,29 44,103zm-906 -94c19,-61 -30,-44 71,-77 52,-17 249,-49 318,0 -32,83 -82,49 -188,62 -96,11 -120,34 -201,15zm6068 -5749l2760 0 0 5372c-57,26 -124,21 -192,20 -648,-5 -2662,32 -2955,-10l1 -5379 386 -3zm-5392 0l229 5 0 5317c-3,114 8,33 -42,65l-3018 4 1 -5391 2830 0zm8286 724l0 0zm0 0l0 -840 -1867 0c0,-156 99,-341 169,-438 392,-545 1217,-602 1659,-83 442,518 260,1199 39,1361zm957 -1295c185,94 147,848 98,1068 -38,169 -251,758 -456,795 21,-160 284,-342 385,-844 35,-175 47,-371 30,-559 -24,-256 -116,-391 -57,-460zm-974 -999c-165,-76 -131,-29 -181,-110 49,-32 -52,-31 77,-23l345 172c165,108 301,186 278,282 -71,1 -260,-201 -519,-321zm-1271 -190c70,-19 166,-38 253,-50 100,-13 196,-33 275,9 0,85 -178,54 -429,102 -112,21 -80,8 -99,-61zm-556 -737l0 560c-148,35 -498,327 -514,327 -332,0 -438,-461 -793,210 44,66 96,129 150,200 61,80 101,142 153,220 -18,79 -104,234 -148,388 -73,255 -3,203 -272,266l0 -841 -4738 0c-54,0 -70,17 -70,70l0 981 -3244 0 0 5671c0,90 74,73 161,72l1706 -2c-4,4 -11,3 -13,10l-28 19c-3,3 -10,7 -14,10 -171,117 -128,220 -528,8 -38,57 -64,68 -108,126 -40,54 -68,103 -102,154 63,94 147,186 210,280 -15,65 -37,100 -62,172 -92,267 18,238 -428,342 -3,92 -24,102 -24,280 0,125 283,111 351,185 41,44 68,272 139,422l-233 280c55,104 123,185 187,280l348 -121c123,88 158,158 352,261 -48,556 -47,322 303,490 59,-111 143,-202 210,-304 199,0 201,57 444,0 19,72 58,110 92,165 35,57 64,104 95,162 48,-23 262,-78 326,-93l0 -374 403 -239 321 123c66,-126 95,-107 187,-280 -44,-65 -200,-240 -200,-303l130 -398c76,-17 139,-32 224,-55 173,-46 149,-71 149,-318 0,-82 -110,-97 -184,-120 -24,-7 -74,-19 -107,-32 -79,-32 -57,12 -82,-81 1173,0 2472,-18 3642,1 265,4 185,53 185,-1052l3198 0c108,0 70,-186 70,-303l0 -2638c87,-7 123,-36 187,-70l0 -536c174,-41 392,-258 452,-296 137,-85 385,132 551,132 59,0 264,-314 304,-373 -13,-15 -28,-31 -43,-51l-284 -393c26,-30 11,-8 39,-54 70,-119 168,-397 171,-529 18,-1 537,-83 537,-187 0,-506 45,-410 -225,-499 -91,-30 -197,-77 -289,-84 -5,-233 -129,-461 -163,-607l327 -420 -257 -397c-174,40 -360,122 -537,163 -84,-124 -354,-301 -490,-373l23 -560c-78,-7 -152,-47 -230,-73 -67,-23 -153,-60 -237,-67 -20,75 -206,310 -280,420l-490 -24c-80,0 -90,18 -163,24 -16,-58 -98,-179 -136,-238 -53,-85 -98,-141 -144,-229l-231 73c-26,7 -68,19 -108,32 -77,25 -40,28 -128,35z"/>
   <path class="fil0" d="M12860 12194c102,43 285,75 379,129 136,-3 163,-110 374,-321 126,-126 235,-235 362,-361 175,-175 532,-588 589,-835l290 1951c77,553 5,523 224,523 0,-396 -187,-1801 -187,-2170 -4,-7 -7,-16 -9,-22 -1,-5 -6,-13 -7,-20l-144 -1641c-19,-209 -28,-68 -50,-231 31,-80 23,-44 23,-140l936 2c144,-6 138,-41 138,-183l-210 -72 -514 -4c25,-107 25,-56 0,-163 -84,-20 -101,-20 -210,-28l-210 0 -583 0 -117 4 -374 0c-32,-61 -45,-109 -77,-179 -73,-156 -462,-1044 -530,-1084 -95,-55 -124,8 -186,50 0,160 77,237 132,357l475 1043c-856,0 -1712,0 -2568,0 -188,0 -1179,-41 -1266,18 -64,42 -65,194 15,229l971 10c0,268 -231,2725 -276,3154l-97 1070 163 0c14,-163 52,-346 70,-513l346 -2642c26,-181 46,-367 70,-536 25,-173 38,-378 74,-533l3501 0c0,110 17,151 27,256 20,200 -58,153 -189,375l-443 747c-40,68 -65,122 -108,196 -78,131 -132,242 -210,373 -44,72 -66,132 -105,199l-491 978c0,3 1,10 2,14z"/>
   <path class="fil1" d="M19999 7385c-109,-241 -59,-316 -254,-522 -500,-529 -605,-110 -988,-530 -95,-103 -343,-240 -539,-177 547,-79 463,221 1102,385 442,113 676,357 679,844zm-2477 -1121c-228,13 -353,-57 -444,-202 75,38 41,26 103,74 67,53 265,122 341,128zm-1060 -382l180 -28 1 -232c39,82 33,139 93,226l185 -28c72,85 10,152 207,388l27 17 201 72 242 7c115,-32 77,-63 187,-72 50,215 -195,675 524,970 534,220 458,565 209,976 -167,274 -22,581 177,714 17,-196 179,-351 357,-436 347,-164 638,17 914,-697 94,-245 121,-406 34,-685 -198,-634 -703,-530 -948,-663 -192,-104 -266,-220 -498,-294 -235,-75 -519,9 -676,91 -89,-134 -48,-82 -46,-420 2,-396 -114,-947 -588,-974 -201,-11 -482,170 -567,193 -111,30 -122,3 -214,67 -217,151 -265,428 -265,784 104,24 132,24 264,24z"/>
   <path class="fil0" d="M13257 5158l0 -117c0,-545 910,-553 910,0 0,209 -57,389 -277,470 -178,67 -326,50 -474,-68 -64,-51 -159,-181 -159,-285zm-93 -1400c-131,30 -169,110 -280,140 41,542 82,229 -170,647 -49,80 -41,61 -150,83 -64,14 -132,38 -217,40 -10,123 -47,205 -47,350 79,42 149,73 228,122 84,51 55,10 79,108l79 274c63,169 -53,154 -106,383l210 233c217,-50 252,-148 369,-91 73,36 78,51 176,83 74,25 131,38 202,55 11,128 88,180 117,303 151,0 232,-23 350,-23 6,-77 27,-117 46,-187 58,-221 57,-107 267,-247 314,-208 118,-56 504,-56 202,-301 218,-178 25,-471 -66,-102 -25,-119 5,-269 22,-115 -12,-209 68,-282 30,-28 205,-142 205,-168 0,-60 -62,-252 -91,-282 -64,-65 -229,-45 -352,-45 -76,-143 -150,-216 -280,-304l0 -350c-403,-213 -315,-97 -494,67 -100,91 -136,34 -294,56 -294,41 -64,89 -449,-169z"/>
   <path class="fil2" d="M16478 8161c-30,68 -83,178 -146,212 -122,65 -853,6 -1058,6l-10 247 27 78c132,33 210,-1 277,99l210 72c84,-2 203,30 303,41 123,13 206,18 350,27 583,-56 522,48 789,-406 37,-63 421,-742 421,-742 76,-266 226,-465 100,-795 -110,-286 -393,-314 -578,-83 -131,164 -225,417 -328,629 -64,133 -278,555 -357,615z"/>
   <path class="fil3" d="M17972 8262c0,156 4,54 -37,94l0 23c31,114 11,47 -17,70 -27,202 -70,418 -63,631 7,196 86,459 68,633 48,93 34,278 2,391 -35,124 -94,195 -184,239 -176,150 -743,120 -1017,83 -174,-23 -331,-64 -497,-92 -255,-42 -285,-13 -519,18 -48,93 -61,40 -70,151 33,0 26,-6 11,23l59 65c180,16 63,-41 396,-41l-118 443 142 267c20,-104 54,-207 84,-323 29,-117 76,-219 79,-341l577 77c165,22 446,32 614,-7l595 2532c29,87 26,80 128,82l-513 -2660c228,-19 409,-259 461,-450 142,-528 -187,-833 10,-1623 37,-150 182,-607 182,-728 -130,-87 -200,-110 -255,71 -19,63 -33,119 -51,183 -8,28 -13,53 -25,92l-42 97z"/>
   <path class="fil4" d="M5962 3721c-13,115 -158,340 -220,392 -91,-40 -141,-146 -192,-241 -53,-52 -32,-30 -63,-98 -71,57 -126,120 -203,177 -85,63 -165,64 -260,116 -300,164 -148,238 -282,507l880 -2c81,-335 42,-234 -13,-324 93,-138 161,-108 263,0 -4,6 -10,12 -13,16l-32 48c-2,5 -5,11 -7,17l20 170c5,25 10,48 17,74l841 0c-52,-138 -31,-411 -323,-539 -140,-61 -190,-39 -280,-139 -81,-90 -121,-115 -115,-292l-18 0 0 118z"/>
   <path class="fil0" d="M6698 4573l-841 0 -235 -1 -880 2c-72,-1 -143,0 -215,1 -35,0 -161,3 -186,-28 -25,-59 -30,-2409 -2,-2489l164 -31c564,1 2294,-21 2566,8 30,146 28,2412 -2,2537l-369 1zm-2458 -2449c0,371 -31,2300 24,2506 204,70 2339,29 2715,29 148,0 189,-23 189,-178 0,-353 31,-2316 -24,-2500 -48,-24 -93,-37 -165,-37l-2544 0c-156,0 -195,17 -195,180z"/>
   <path class="fil5" d="M1640 4417l34 -8 -1 -178c-36,-54 -56,-60 -93,-116 -33,-50 -34,-85 -71,-119 -54,-50 -82,-19 -122,-90 -23,-43 -21,-32 -18,-76 13,-202 105,46 369,-108 122,-71 173,-161 248,-227 26,122 53,196 128,274 63,-11 115,-73 152,17 32,79 -21,136 -62,169 -108,87 -41,-7 -115,141 -35,69 -43,90 -103,117l-2 209c446,38 422,-115 522,-376 84,-219 -48,-264 -133,-396 -52,-80 -33,-151 -67,-238 -50,-128 -638,-414 -823,-38 -128,261 -204,60 -215,384 -8,244 -183,110 -29,441 83,175 189,179 401,218z"/>
   <path class="fil0" d="M10262 4775l-1313 1 -353 -5 3 -1830 1990 9 -7 1826 -320 -1zm382 -1880c-58,-52 -54,-42 -163,-42l-1378 1c-557,0 -596,-57 -596,202l0 1590c-1,180 10,221 197,222l1589 -1c496,0 384,53 384,-1016 0,-178 37,-858 -33,-956z"/>
   <path class="fil3" d="M5548 3330l372 -5c-70,179 -271,198 -372,5zm-292 -370c-253,-15 -157,254 -32,310 137,59 58,-46 141,141 33,75 80,116 128,169 28,45 109,91 206,100l263 -77 18 0c218,-274 81,-245 238,-327 70,-37 105,-60 124,-157 24,-122 -5,-151 -114,-165 -106,100 -12,164 -90,285 -42,-73 -15,-157 -42,-237 -26,-74 -74,-71 -131,-121 -77,-67 -140,-225 -243,-273 -119,-55 -298,71 -326,153 -47,135 39,304 -75,432 -54,-95 6,-127 -65,-233z"/>
   <path class="fil0" d="M7634 7252c-44,-18 -52,-24 -119,-24 -559,0 -3427,-35 -3744,19l2 121 171 16c542,-23 3505,51 3694,-24l-4 -108z"/>
   <path class="fil0" d="M4131 8087c586,-1 3381,29 3508,-26l-6 -106c-86,-39 -3718,-53 -3858,-5 -27,194 181,137 356,137z"/>
   <path class="fil0" d="M748 4808c57,114 391,59 512,59l1519 -2c108,-24 56,4 90,-75 -78,-30 -30,28 -28,-77 1,-31 6,-77 7,-114 1,-77 -1,-157 -1,-234l1 -1214c6,-255 -2,-195 -50,-220l3 1843 -326 4c-84,-160 -201,-269 -429,-299l-72 10c-39,102 -74,160 -131,219 -91,-41 -136,-136 -171,-247 -314,34 -370,120 -511,315l-343 1 -8 -1848 -43 127c-23,338 42,1453 -2,1724 35,38 46,28 -17,28z"/>
   <path class="fil6" d="M9422 4424c55,-36 32,-1 45,-80 4,-27 -6,-115 -8,-143 -138,-33 -184,-319 -55,-445 60,-60 127,-70 221,-106 122,-47 101,-71 178,-127 121,215 168,625 -29,678l2 225c142,-83 180,-112 249,-284 51,-127 77,-286 66,-432 -23,-313 -146,-292 -350,-428 -235,-158 -631,-24 -645,475 -9,313 127,549 326,667z"/>
   <path class="fil0" d="M6489 5282c-300,1 -1823,-33 -1895,37 -72,70 -34,173 31,207 70,37 213,19 300,19 381,-1 1710,27 1900,-27 82,-261 -100,-237 -336,-236z"/>
   <path class="fil0" d="M7634 7603c-51,-21 -70,-25 -142,-25l-3717 20c-15,103 -5,138 123,138l3617 0c75,0 69,-3 123,-25l-4 -108z"/>
   <path class="fil0" d="M6582 5882c127,-190 -160,-203 -280,-203 -281,3 -1408,-47 -1474,61 -173,281 510,206 797,206 158,0 884,44 957,-64z"/>
   <path class="fil7" d="M5256 2960c71,106 11,138 65,233 114,-128 28,-297 75,-432 28,-82 207,-208 326,-153 103,48 166,206 243,273 57,50 105,47 131,121 27,80 0,164 42,237 78,-121 -16,-185 90,-285 88,-536 -296,-763 -692,-615 -303,113 -418,45 -280,621z"/>
   <path class="fil0" d="M16431 8943c8,88 -7,41 24,66 -95,120 -237,51 -440,74l-1124 138c-109,18 -105,27 -172,-2l-38 -23c22,163 31,22 50,231l144 1641c1,7 6,15 7,20 2,6 5,15 9,22 39,2 357,386 402,438l327 326c57,53 76,53 134,111 84,33 122,46 168,128 49,37 56,40 112,70l62 -46c40,-57 92,-88 129,-160 30,-57 40,-144 66,-203 -12,-168 -146,-343 -163,-514l-142 -267c-40,-65 -74,-131 -125,-200 -50,-70 -117,-139 -153,-202l-59 -65 -11 -23 -122 -111c70,-21 109,-25 192,-40 234,-31 264,-60 519,-18 166,28 323,69 497,92 274,37 841,67 1017,-83 90,-44 149,-115 184,-239 32,-113 46,-298 -2,-391 18,-174 -61,-437 -68,-633 -7,-213 36,-429 63,-631l17 -70 0 -23c2,-8 9,-41 11,-45 23,-55 10,-25 26,-49 0,-158 43,-267 47,-419 5,-160 4,-346 -21,-470 -53,-258 -155,-492 -283,-684 -706,95 -620,176 -1004,494 -90,81 -159,279 -192,420 -42,181 -41,326 -41,558 79,-60 293,-482 357,-615 103,-212 197,-465 328,-629 185,-231 468,-203 578,83 126,330 -24,529 -100,795 0,0 -384,679 -421,742 -267,454 -206,350 -789,406z"/>
   <path class="fil3" d="M16096 12137c41,91 94,111 152,183 221,274 164,114 43,788 237,-9 302,-84 363,-282 33,-107 62,-472 81,-506l-332 -412c-21,-32 -23,-41 -46,-72l-66 -62c-26,59 -36,146 -66,203 -37,72 -89,103 -129,160z"/>
   <path class="fil3" d="M12230 13034c255,-6 306,-19 518,-123 111,-54 359,-209 462,-191 -41,-136 -13,-271 29,-397 -94,-54 -277,-86 -379,-129 -187,196 -280,544 -630,840z"/>
   <path class="fil0" d="M10993 6846l16 -107c-398,-27 -2057,-14 -2678,-7 -96,1 -98,-13 -159,31 14,100 -29,90 277,87 771,-6 1862,31 2544,-4z"/>
   <path class="fil0" d="M397 7100c438,36 1863,5 2497,8 105,0 274,38 327,-59 -68,-127 -509,-59 -654,-59 -587,0 -1694,-28 -2170,6l0 104z"/>
   <path class="fil0" d="M397 6843c417,36 1873,5 2497,8 105,1 274,38 327,-59 -65,-126 -510,-58 -654,-58 -618,-1 -1637,-27 -2170,4l0 105z"/>
   <path class="fil3" d="M1715 4073l222 -6c-74,128 -164,72 -222,6zm-42 158c44,18 89,38 148,40 80,3 103,-19 165,-58 60,-27 68,-48 103,-117 74,-148 7,-54 115,-141 41,-33 94,-90 62,-169 -37,-90 -89,-28 -152,-17 -75,-78 -102,-152 -128,-274 -75,66 -126,156 -248,227 -264,154 -356,-94 -369,108 -3,44 -5,33 18,76 40,71 68,40 122,90 37,34 38,69 71,119 37,56 57,62 93,116z"/>
   <path class="fil0" d="M397 7355c285,25 2737,32 2823,-17 -25,-138 -135,-92 -279,-91 -117,1 -234,1 -350,1 -570,0 -1757,-30 -2194,7l0 100z"/>
   <path class="fil0" d="M10993 7103l0 -110c-635,-22 -1455,-3 -2124,-3 -161,0 -600,-39 -697,31 14,99 -30,88 277,86 796,-7 1809,27 2544,-4z"/>
   <path class="fil0" d="M748 4808c63,0 52,10 17,-28 44,-271 -21,-1386 2,-1724l43 -127 1988 2c48,25 56,-35 50,220l-1 1214c0,77 2,157 1,234 -1,37 -6,83 -7,114 -2,105 -50,47 28,77 45,-63 29,-1824 -13,-1923 -227,-36 -1455,-7 -1876,-12 -115,-2 -174,-27 -228,49 -27,34 -93,1745 -4,1904z"/>
   <path class="fil0" d="M10993 7358l0 -107c-600,-26 -1475,-3 -2124,-3 -160,0 -601,-39 -694,33 14,93 -22,84 274,81 783,-6 1837,29 2544,-4z"/>
   <path class="fil3" d="M13934 8612l117 -4c43,-32 290,-145 350,-159 38,26 68,46 110,77 49,36 82,52 123,82l210 0c117,-86 278,12 420,18l10 -247c-170,0 -256,-21 -392,-61 -111,-34 -236,-104 -382,-74 -136,28 -496,264 -566,368z"/>
   <path class="fil3" d="M9506 4070l110 -2 110 1c-55,97 -165,97 -220,1zm-47 131l63 50c100,52 175,12 252,-50 197,-53 150,-463 29,-678 -77,56 -56,80 -178,127 -94,36 -161,46 -221,106 -129,126 -83,412 55,445z"/>
   <path class="fil8" d="M12230 13034c-118,59 -230,100 -257,200 295,141 660,-79 994,-174 207,-58 161,-43 290,-130 0,-155 -32,-109 -47,-210 -103,-18 -351,137 -462,191 -212,104 -263,117 -518,123z"/>
   <path class="fil2" d="M17201 6496c-316,109 -268,67 -299,276 -28,190 -152,263 -191,411 384,-318 298,-399 1004,-494 0,-128 -23,-188 -23,-341l-92 0c-55,44 -117,55 -199,83 -70,23 -128,44 -200,65z"/>
   <path class="fil8" d="M8949 4776l1313 -1c-97,-169 -199,-277 -439,-293 -138,19 -43,116 -207,222 -106,-70 -91,-121 -164,-231l-84 15c-215,-4 -330,156 -419,288z"/>
   <path class="fil0" d="M8951 5776c147,39 1135,38 1291,-1l-14 -154c-124,-33 -1143,-33 -1280,-2l3 157z"/>
   <path class="fil3" d="M16462 5882c12,149 119,349 224,422 155,106 359,51 442,-96 -197,-236 -135,-303 -207,-388l-185 28c-60,-87 -54,-144 -93,-226l-1 232 -180 28z"/>
   <path class="fil0" d="M1165 5769c139,54 943,28 1146,28 177,0 243,-195 0,-195l-1016 0c-132,0 -161,42 -130,167z"/>
   <path class="fil8" d="M16291 13108c-39,11 1,-5 -42,16 -90,44 -104,67 -121,133 75,6 95,28 182,21 64,-6 96,-16 191,-22 281,-16 237,-9 317,-523 33,-211 78,-261 80,-363 -70,-47 -67,-77 -163,-50 -19,34 -48,399 -81,506 -61,198 -126,273 -363,282z"/>
   <path class="fil0" d="M9096 5334c-39,253 272,169 497,169 233,0 528,82 496,-169 -130,-51 -860,-51 -993,0z"/>
   <path class="fil0" d="M1305 5469c130,67 667,34 842,34 232,0 221,-197 0,-197l-677 0c-144,0 -182,8 -165,163z"/>
   <path class="fil3" d="M15922 12113c-46,-82 -84,-95 -168,-128 0,125 -235,1104 -280,1295l117 0 322 -1151c2,-4 5,-11 9,-16z"/>
   <path class="fil0" d="M4818 6456c109,200 92,-13 95,301 212,-96 93,-78 306,-4l-15 -171 104 -125c-219,-22 -138,-24 -243,-159 -105,111 -30,144 -247,158z"/>
   <path class="fil0" d="M6091 6461c103,174 123,12 88,296 199,-72 111,-94 302,0 16,-288 -57,-89 96,-293 -257,-62 -106,14 -242,-174 -134,171 13,126 -244,171z"/>
   <path class="fil0" d="M6735 6456c29,65 31,73 112,127l-25 171c212,-74 99,-95 310,4 2,-70 -59,-176 92,-287 -68,-28 -107,-13 -155,-48l-90 -125c-105,138 -27,136 -244,158z"/>
   <path class="fil0" d="M4280 6758c156,-93 138,-65 304,-1 -22,-148 -46,-127 43,-239 35,-43 18,-9 36,-53 -212,-67 -116,34 -228,-165 -5,3 -10,9 -12,12 -133,168 11,82 -239,154 156,180 92,19 96,292z"/>
   <path class="fil0" d="M5551 6581c26,48 2,106 -9,174 202,-74 107,-100 307,3 -6,-229 -55,-153 94,-290 -67,-22 -120,-15 -160,-43l-102 -133c-49,160 -44,145 -226,166 45,92 74,86 96,123z"/>
   <path class="fil9" d="M5487 3774c31,68 10,46 63,98 246,-24 277,-123 412,-151l0 -118 -263 77c-97,-9 -178,-55 -206,-100l-6 194z"/>
   <path class="fil8" d="M5622 4572l235 1c-7,-26 -12,-49 -17,-74l-20 -170c2,-6 5,-12 7,-17l32 -48c3,-4 9,-10 13,-16 -102,-108 -170,-138 -263,0 55,90 94,-11 13,324z"/>
   <path class="fil3" d="M9464 4422c-6,6 -14,12 -19,15l-77 51 84 -15c73,110 58,161 164,231 164,-106 69,-203 207,-222 -35,-25 -30,-16 -47,-56 -12,-18 -13,-7 -30,-60 0,0 -8,-70 -8,-72 -53,128 -175,77 -274,128z"/>
   <path class="fil3" d="M1674 4409l-34 8 32 44c35,111 80,206 171,247 57,-59 92,-117 131,-219l72 -10c-100,-48 -20,-3 -62,-57 -18,-36 -9,-40 -19,-60 -30,-62 4,-12 -42,-61 -37,105 -129,107 -249,108z"/>
   <path class="fil10" d="M5550 3872c51,95 101,201 192,241 62,-52 207,-277 220,-392 -135,28 -166,127 -412,151z"/>
   <path class="fil0" d="M9469 6388c-9,-154 -3,-107 61,-203 -62,-31 -72,-10 -118,-54 -4,-5 -32,-55 -53,-76 -138,150 29,28 -169,130 65,96 65,52 59,203 162,-57 56,-60 220,0z"/>
   <path class="fil0" d="M8784 6387c144,-64 81,-51 219,0 1,-163 -9,-93 60,-202 -167,-85 -42,17 -171,-130 -118,143 9,39 -168,130 67,92 69,51 60,202z"/>
   <path class="fil0" d="M1401 6185c73,86 79,43 54,201 155,-51 82,-62 223,1 -3,-153 -4,-96 63,-202 -52,-35 -61,-10 -107,-47 -34,-26 -26,-48 -71,-90 -60,127 -56,76 -162,137z"/>
   <path class="fil0" d="M1867 6185c76,89 72,50 56,201 146,-50 75,-63 222,2 -7,-162 -11,-92 63,-203 -52,-34 -63,-11 -109,-46 -31,-24 -27,-48 -69,-88 -68,121 -55,72 -163,134z"/>
   <path class="fil0" d="M936 6185c81,85 77,43 55,201 145,-48 88,-63 221,1 2,-169 -12,-81 64,-202 -52,-34 -61,-10 -109,-48 -32,-26 -24,-46 -68,-88 -59,128 -60,74 -163,136z"/>
   <path class="fil11" d="M9933 6376c-18,-143 -9,-115 56,-191 -140,-66 -66,3 -163,-121l-63 82c-27,20 -65,22 -102,39 75,98 61,47 58,199 121,-63 83,-54 214,-8z"/>
   <path class="fil11" d="M10454 6185c-134,-66 -67,9 -161,-121l-30 43c-17,22 -18,26 -34,38 -30,22 -62,22 -102,40 72,101 60,43 60,198 116,-66 94,-52 210,0 -10,-149 -21,-111 57,-198z"/>
   <path class="fil11" d="M2338 6185c74,79 76,43 55,194 121,-45 100,-63 212,4 2,-172 -36,-69 64,-198 -73,-44 -68,16 -151,-92l-21 -28c-84,129 -38,58 -159,120z"/>
   <path class="fil9" d="M9422 4424l42 -2c99,-51 221,0 274,-128 0,2 8,72 8,72 17,53 18,42 30,60l-2 -225c-77,62 -152,102 -252,50l-63 -50c2,28 12,116 8,143 -13,79 10,44 -45,80z"/>
   <path class="fil9" d="M1674 4409c120,-1 212,-3 249,-108 46,49 12,-1 42,61 10,20 1,24 19,60l2 -209c-62,39 -85,61 -165,58 -59,-2 -104,-22 -148,-40l1 178z"/>
   <path class="fil3" d="M17201 6425l0 71c72,-21 130,-42 200,-65 82,-28 144,-39 199,-83l-2 -44 -242 -7c-26,49 -1,16 -34,53 -3,2 -37,30 -41,33 -69,50 -14,18 -80,42z"/>
   <path class="fil12" d="M5548 3330c101,193 302,174 372,-5l-372 5z"/>
   <path class="fil13" d="M17201 6425c66,-24 11,8 80,-42 4,-3 38,-31 41,-33 33,-37 8,-4 34,-53l-201 -72c31,76 15,124 46,200z"/>
   <path class="fil9" d="M17522 6264c-76,-6 -274,-75 -341,-128 -62,-48 -28,-36 -103,-74 91,145 216,215 444,202z"/>
   <path class="fil14" d="M9506 4070c55,96 165,96 220,-1l-110 -1 -110 2z"/>
   <path class="fil14" d="M1715 4073c58,66 148,122 222,-6l-222 6z"/>
  </g>
 </g>
</svg>
